<svg xmlns="http://www.w3.org/2000/svg" width="716" height="360" viewBox="0 0 537 270" version="1">
  <g class="graph">
    <path fill="#fff" d="M537 270H0V0h537z"/>
    <g class="cluster">
      <path d="M26 200h487c6 0 12-6 12-12V24c0-6-6-12-12-12H26c-6 0-12 6-12 12v164c0 6 6 12 12 12" fill="none" stroke="gray"/>
      <text x="454" y="-183" font-size="11" font-family="Times,serif" text-anchor="middle" fill="gray" transform="translate(-185 208)">
        Global
      </text>
    </g>
    <g class="cluster">
      <path d="M34 192h471c6 0 12-6 12-12V52c0-6-6-12-12-12H34c-6 0-12 6-12 12v128c0 6 6 12 12 12" fill="none" stroke="gray"/>
      <text x="454" y="-155" font-size="11" font-family="Times,serif" text-anchor="middle" fill="gray" transform="translate(-185 208)">
        Pipeline
      </text>
    </g>
    <g class="cluster">
      <path d="M42 184h320c6 0 12-6 12-12v-48c0-6-6-12-12-12H42c-6 0-12 6-12 12v48c0 6 6 12 12 12" fill="none" stroke="gray"/>
      <text x="387" y="-83" font-size="11" font-family="Times,serif" text-anchor="middle" fill="gray" transform="translate(-185 208)">
        Interfaces
      </text>
    </g>
    <g class="node">
      <path fill="none" stroke="#000" d="M366 140H241v36h125z"/>
      <text x="488" y="-47" font-size="11" font-family="Courier,monospace" text-anchor="middle" transform="translate(-185 208)">
        StandardPipeline
      </text>
    </g>
    <g class="node">
      <path fill="none" stroke="#000" d="M169 140H38v36h131z"/>
      <text x="288" y="-47" font-size="11" font-family="Courier,monospace" text-anchor="middle" transform="translate(-185 208)">
        PrincipalPipeline
      </text>
    </g>
    <path d="M241 158h-60m0-4v7l-10-3z" fill="none" stroke="#000"/>
    <g class="node" transform="translate(25 291)">
      <ellipse cx="75" cy="-50" rx="75" ry="18" fill="none" stroke="#000"/>
      <text x="75" y="-46" font-size="14" font-family="Times,serif" text-anchor="middle" fill="gray">
        \IteratorAggregate
      </text>
    </g>
    <path d="M100 176v34m0 10l-4-10h7z" fill="none" stroke="#000"/>
    <g class="node">
      <path fill="none" stroke="#000" d="M509 104h-71v36h71z"/>
      <text x="658" y="-83" font-size="11" font-family="Courier,monospace" text-anchor="middle" transform="translate(-185 208)">
        Standard
      </text>
    </g>
    <g class="edge" fill="none" stroke="#000">
      <path d="M437 129l-61 14" stroke-dasharray="1,5"/>
      <path d="M366 145l9-6 1 7z"/>
    </g>
    <g class="node">
      <path fill="none" stroke="#000" d="M345 68h-84v36h84z"/>
      <text x="454" y="-125" font-size="11" font-family="Courier,monospace" transform="translate(-185 208)">
        «abstract»
      </text>
      <text x="458" y="-113" font-size="11" font-family="Courier,monospace" transform="translate(-185 208)">
        Principal
      </text>
    </g>
    <path d="M437 115l-82-18m-9-2l10-1-1 6z" fill="none" stroke="#000"/>
    <g class="edge" fill="none" stroke="#000">
      <path d="M261 101a7057 7057 0 0 0-98 36" stroke-dasharray="1,5"/>
      <path d="M153 140l8-7 3 7z"/>
    </g>
  </g>
</svg>
